<?xml version="1.0" encoding="UTF-8"?>
<!DOCTYPE svg PUBLIC "-//W3C//DTD SVG 1.1//EN" "http://www.w3.org/Graphics/SVG/1.1/DTD/svg11.dtd">
<svg xmlns="http://www.w3.org/2000/svg" version="1.1" width="32px" height="32px" style="shape-rendering:geometricPrecision; text-rendering:geometricPrecision; image-rendering:optimizeQuality; fill-rule:evenodd; clip-rule:evenodd" xmlns:xlink="http://www.w3.org/1999/xlink">
<g><path style="opacity:0.326" fill="#4573fd" d="M -0.5,-0.5 C 10.1667,-0.5 20.8333,-0.5 31.5,-0.5C 31.5,0.5 31.5,1.5 31.5,2.5C 28.0481,4.2847 24.3815,5.61803 20.5,6.5C 19.1667,6.5 17.8333,6.5 16.5,6.5C 16.5,7.83333 16.5,9.16667 16.5,10.5C 16.1667,10.5 15.8333,10.5 15.5,10.5C 15.7989,8.39605 15.4656,6.39605 14.5,4.5C 13.6143,5.32496 13.281,6.32496 13.5,7.5C 8.36629,6.45984 3.69962,4.45984 -0.5,1.5C -0.5,0.833333 -0.5,0.166667 -0.5,-0.5 Z"/></g>
<g><path style="opacity:0.545" fill="#2d5ef3" d="M -0.5,1.5 C 3.69962,4.45984 8.36629,6.45984 13.5,7.5C 13.741,10.999 12.9076,11.3323 11,8.5C 10.5172,9.44802 10.3505,10.448 10.5,11.5C 12.2915,11.634 13.9582,11.3007 15.5,10.5C 15.8333,10.5 16.1667,10.5 16.5,10.5C 16.56,11.0431 16.8933,11.3764 17.5,11.5C 18.2745,9.60365 19.2745,7.93698 20.5,6.5C 24.3815,5.61803 28.0481,4.2847 31.5,2.5C 31.5,5.83333 31.5,9.16667 31.5,12.5C 29.2273,12.9568 27.894,14.2901 27.5,16.5C 26.5,16.5 25.5,16.5 24.5,16.5C 24.5792,17.9305 24.2458,19.2638 23.5,20.5C 24.6888,21.4287 26.0222,21.762 27.5,21.5C 21.7627,24.9647 15.4294,26.1314 8.5,25C 6.45559,24.5017 5.12225,23.335 4.5,21.5C 3.83538,19.6309 3.16871,17.6309 2.5,15.5C 1.58317,14.8728 0.583168,14.5394 -0.5,14.5C -0.5,10.1667 -0.5,5.83333 -0.5,1.5 Z"/></g>
<g><path style="opacity:0.918" fill="#10245e" d="M 20.5,6.5 C 19.2745,7.93698 18.2745,9.60365 17.5,11.5C 16.8933,11.3764 16.56,11.0431 16.5,10.5C 16.5,9.16667 16.5,7.83333 16.5,6.5C 17.8333,6.5 19.1667,6.5 20.5,6.5 Z"/></g>
<g><path style="opacity:0.918" fill="#10235c" d="M 15.5,10.5 C 13.9582,11.3007 12.2915,11.634 10.5,11.5C 10.3505,10.448 10.5172,9.44802 11,8.5C 12.9076,11.3323 13.741,10.999 13.5,7.5C 13.281,6.32496 13.6143,5.32496 14.5,4.5C 15.4656,6.39605 15.7989,8.39605 15.5,10.5 Z"/></g>
<g><path style="opacity:0.303" fill="#265cfe" d="M 31.5,12.5 C 31.5,18.8333 31.5,25.1667 31.5,31.5C 20.8333,31.5 10.1667,31.5 -0.5,31.5C -0.5,25.8333 -0.5,20.1667 -0.5,14.5C 0.583168,14.5394 1.58317,14.8728 2.5,15.5C 3.16871,17.6309 3.83538,19.6309 4.5,21.5C 5.12225,23.335 6.45559,24.5017 8.5,25C 15.4294,26.1314 21.7627,24.9647 27.5,21.5C 28.8333,19.8333 28.8333,18.1667 27.5,16.5C 27.894,14.2901 29.2273,12.9568 31.5,12.5 Z"/></g>
<g><path style="opacity:0.941" fill="#0f1229" d="M 27.5,16.5 C 28.8333,18.1667 28.8333,19.8333 27.5,21.5C 26.0222,21.762 24.6888,21.4287 23.5,20.5C 24.2458,19.2638 24.5792,17.9305 24.5,16.5C 25.5,16.5 26.5,16.5 27.5,16.5 Z"/></g>
<g><path style="opacity:1" fill="#090814" d="M 16.5,17.5 C 16.1193,18.9311 15.1193,19.7645 13.5,20C 14.7375,20.2321 15.7375,20.7321 16.5,21.5C 15.1667,21.5 13.8333,21.5 12.5,21.5C 12.5,19.8333 12.5,18.1667 12.5,16.5C 14.099,16.2322 15.4324,16.5655 16.5,17.5 Z"/></g>
<g><path style="opacity:1" fill="#04040f" d="M 4.5,21.5 C 4.5,19.1667 4.5,16.8333 4.5,14.5C 10.1581,13.6794 11.8248,15.846 9.5,21C 7.86586,21.4935 6.19919,21.6602 4.5,21.5 Z"/></g>
<g><path style="opacity:0.637" fill="#295cf7" d="M 8.5,16.5 C 8.84316,18.4832 8.17649,19.8166 6.5,20.5C 6.15684,18.5168 6.82351,17.1834 8.5,16.5 Z"/></g>
<g><path style="opacity:0.804" fill="#102563" d="M 8.5,16.5 C 6.82351,17.1834 6.15684,18.5168 6.5,20.5C 5.54885,19.0813 5.21552,17.4147 5.5,15.5C 6.79105,15.2627 7.79105,15.596 8.5,16.5 Z"/></g>
<g><path style="opacity:0.831" fill="#142d79" d="M 16.5,17.5 C 16.8333,17.5 17.1667,17.5 17.5,17.5C 18.1667,17.5 18.5,17.8333 18.5,18.5C 17.8333,19.5 17.1667,20.5 16.5,21.5C 15.7375,20.7321 14.7375,20.2321 13.5,20C 15.1193,19.7645 16.1193,18.9311 16.5,17.5 Z"/></g>
<g><path style="opacity:1" fill="#0b0b1b" d="M 17.5,17.5 C 18.5659,16.3079 19.3992,16.6412 20,18.5C 20.6667,17.8333 21.3333,17.1667 22,16.5C 22.624,18.4645 22.124,20.1311 20.5,21.5C 19.0815,20.9953 18.4148,19.9953 18.5,18.5C 18.5,17.8333 18.1667,17.5 17.5,17.5 Z"/></g>
</svg>
